<?xml version="1.0" encoding="utf-8"?>
<!-- Generator: Adobe Illustrator 28.3.0, SVG Export Plug-In . SVG Version: 6.00 Build 0)  -->
<svg version="1.1" id="Layer_1" xmlns="http://www.w3.org/2000/svg" xmlns:xlink="http://www.w3.org/1999/xlink" x="0px" y="0px"
	 viewBox="0 0 172.8 134.5" style="enable-background:new 0 0 172.8 134.5;" xml:space="preserve">
<style type="text/css">
	.st0{fill-rule:evenodd;clip-rule:evenodd;fill:#FF8200;}
	.st1{fill-rule:evenodd;clip-rule:evenodd;fill:#151526;}
	.st2{fill-rule:evenodd;clip-rule:evenodd;fill:#FFFFFF;}
</style>
<path class="st0" d="M171.1,73L145,99.1c-1.1,1.1-2.5,1.7-4.1,1.7H2.9c-1.6,0-2.9-1.3-2.9-2.9v-66c0-1.5,0.6-3,1.7-4.1L27.8,1.7
	C28.9,0.6,30.4,0,31.9,0h138c1.6,0,2.9,1.3,2.9,2.9v66C172.8,70.4,172.2,71.9,171.1,73z"/>
<path class="st1" d="M171.2,133.4c-0.6,0.5-1.6,1-3.2,1c-1.1,0-2.3-0.3-3.2-1.2c-0.7-0.7-1.3-1.9-1.4-3h2.2c0.1,0.5,0.4,1.2,0.7,1.5
	s0.8,0.7,1.8,0.7s1.5-0.4,1.8-0.6c0.7-0.7,0.7-1.7,0.7-2.5V128c-1,1.3-2.3,1.4-3,1.4c-1.3,0-2.3-0.3-3.2-1.3
	c-0.9-0.9-1.5-2.3-1.5-3.9c0-1.8,0.7-3,1.4-3.8c1-1,2.1-1.3,3.3-1.3c1,0,2.1,0.3,2.9,1.3v-1.1h2.3v9
	C172.8,130.7,172.5,132.3,171.2,133.4z M169.7,121.9c-0.6-0.6-1.2-0.7-1.8-0.7s-1.2,0.2-1.7,0.6c-0.6,0.5-1,1.4-1,2.5
	c0,1,0.4,1.9,1,2.5c0.4,0.4,1,0.6,1.7,0.6s1.3-0.2,1.9-0.8c0.7-0.7,0.9-1.6,0.9-2.3C170.7,123.2,170.3,122.4,169.7,121.9z
	 M158.9,123.7c0-2.5-0.9-2.6-1.8-2.6c-1,0-2.1,0.1-2.1,3.3v4.7h-2.3v-9.8h2.3v0.9c1-1.1,2.1-1.2,2.6-1.2c1.8,0,2.6,0.9,2.9,1.3
	c0.4,0.5,0.6,1.2,0.6,2.7v6h-2.3v-5.3H158.9z M149.3,118.1c-0.8,0-1.5-0.6-1.5-1.5c0-0.8,0.6-1.5,1.5-1.5c0.8,0,1.5,0.6,1.5,1.5
	S150.2,118.1,149.3,118.1z M143.6,128.1c-1,1.2-2.2,1.3-2.9,1.3c-3,0-4.7-2.5-4.7-5.2c0-3.2,2.2-5.1,4.8-5.1c0.7,0,2,0.2,2.9,1.4
	v-5.1h2.3v13.7h-2.3v-1H143.6z M141,121.2c-1.6,0-2.7,1.4-2.7,3.1s1.1,3.1,2.7,3.1c1.4,0,2.8-1,2.8-3.1
	C143.7,122.2,142.4,121.2,141,121.2z M131.9,128.1c-1,1.2-2.2,1.3-2.9,1.3c-3,0-4.7-2.5-4.7-5.2c0-3.2,2.2-5.1,4.8-5.1
	c0.7,0,2,0.2,2.9,1.4v-1.1h2.3v9.8H132v-1.1H131.9z M129.3,121.2c-1.6,0-2.7,1.4-2.7,3.1s1.1,3.1,2.7,3.1c1.4,0,2.8-1,2.8-3.1
	S130.8,121.2,129.3,121.2z M122.2,121.3c-0.5,0-1,0.1-1.4,0.5c-0.6,0.7-0.6,1.6-0.6,2.3v5.1h-2.3v-9.8h2.3v0.9
	c0.3-0.3,0.6-0.6,1-0.8c0.4-0.3,0.9-0.3,1.4-0.3c0.6,0,1.2,0.1,1.8,0.5l-0.9,2.1C122.8,121.3,122.4,121.3,122.2,121.3z M114.2,129.2
	h-2.3v-7.7h-1.7v-2.1h1.7v-4h2.3v4h1.7v2.1h-1.7V129.2z M104.1,121.3c-0.5,0-1,0.1-1.4,0.5c-0.6,0.7-0.6,1.6-0.6,2.3v5.1h-2.3v-9.8
	h2.3v0.9c0.3-0.3,0.6-0.6,1-0.8c0.4-0.3,0.9-0.3,1.4-0.3c0.6,0,1.2,0.1,1.8,0.5l-0.9,2.1C104.7,121.3,104.3,121.3,104.1,121.3z
	 M91.8,126.8c0.5,0.5,1.2,0.6,1.7,0.6c0.6,0,1.1-0.1,1.6-0.5c0.4-0.3,0.7-0.7,0.9-1.1l1.9,1.1c-0.4,0.7-1,1.4-1.6,1.8
	c-0.8,0.5-1.8,0.7-2.9,0.7c-1.3,0-2.4-0.3-3.3-1.3c-0.9-0.9-1.4-2.3-1.4-3.7c0-1.5,0.5-3,1.6-4c0.8-0.8,1.9-1.3,3.3-1.3
	c1.6,0,2.6,0.7,3.1,1.3c1.3,1.3,1.4,3.1,1.4,4.1v0.3h-7C91,125.5,91.3,126.3,91.8,126.8z M95.7,123c-0.1-0.5-0.3-1-0.7-1.3
	c-0.3-0.3-0.8-0.6-1.5-0.6c-0.8,0-1.3,0.3-1.6,0.6c-0.3,0.3-0.6,0.8-0.7,1.3H95.7z M78.6,119.4h2.6l2.5,5.6l2.5-5.6h2.6l-5.1,10.5
	L78.6,119.4z M76.3,118.1c-0.8,0-1.5-0.6-1.5-1.5c0-0.8,0.6-1.5,1.5-1.5c0.8,0,1.5,0.6,1.5,1.5S77.1,118.1,76.3,118.1z M71.9,121.3
	c-0.5,0-1,0.1-1.4,0.5c-0.6,0.7-0.6,1.6-0.6,2.3v5.1h-2.3v-9.8h2.3v0.9c0.3-0.3,0.6-0.6,1-0.8c0.4-0.3,0.9-0.3,1.4-0.3
	c0.6,0,1.2,0.1,1.8,0.5l-0.9,2.1C72.6,121.3,72.1,121.3,71.9,121.3z M58.3,123.7c0-2.5-0.9-2.6-1.8-2.6c-1,0-2.1,0.1-2.1,3.3v4.7
	h-2.3v-9.8h2.3v0.9c1-1.1,2.1-1.2,2.6-1.2c1.8,0,2.6,0.9,2.9,1.3c0.4,0.5,0.6,1.2,0.6,2.7v6h-2.3L58.3,123.7L58.3,123.7z
	 M45.3,129.5c-2.9,0-5.2-2.2-5.2-5.2s2.3-5.2,5.2-5.2s5.2,2.1,5.2,5.2C50.5,127.3,48.2,129.5,45.3,129.5z M45.3,121.2
	c-1.4,0-2.9,0.9-2.9,3.1c0,1.9,1.1,3.1,2.9,3.1c1.8,0,2.9-1.2,2.9-3.1C48.2,122.1,46.7,121.2,45.3,121.2z M35.7,122.8l1.2,0.6
	c0.5,0.3,1,0.5,1.4,0.9c0.5,0.5,0.7,1.1,0.7,1.8c0,0.9-0.3,1.6-0.9,2.2c-0.8,0.8-1.7,1.1-2.7,1.1c-0.6,0-1.4-0.1-2.1-0.6
	c-0.6-0.4-1-1.1-1.3-1.8l1.9-0.9c0.1,0.3,0.3,0.7,0.5,0.9c0.1,0.1,0.5,0.4,1,0.4c0.3,0,0.7-0.1,0.9-0.3c0.2-0.2,0.3-0.5,0.3-0.8
	s-0.1-0.5-0.3-0.7c-0.3-0.3-0.6-0.4-1-0.6l-0.8-0.4c-0.4-0.2-1-0.5-1.3-0.8c-0.5-0.5-0.7-1-0.7-1.6c0-0.8,0.3-1.6,0.8-2.1
	c0.4-0.5,1.2-0.9,2.4-0.9c0.7,0,1.3,0.1,1.8,0.5c0.3,0.2,0.8,0.6,1.1,1.2l-1.7,1.1c-0.2-0.4-0.7-0.8-1.4-0.8c-0.3,0-0.6,0.1-0.7,0.3
	c-0.1,0.1-0.2,0.3-0.2,0.5c0,0.3,0.1,0.4,0.3,0.6C35,122.5,35.2,122.6,35.7,122.8z M28.4,128.1c-1,1.2-2.2,1.3-2.9,1.3
	c-3,0-4.7-2.5-4.7-5.2c0-3.2,2.2-5.1,4.8-5.1c0.7,0,2,0.2,2.9,1.4v-5.1h2.3v13.7h-2.3L28.4,128.1L28.4,128.1z M25.8,121.2
	c-1.6,0-2.7,1.4-2.7,3.1s1.1,3.1,2.7,3.1c1.4,0,2.8-1,2.8-3.1C28.6,122.2,27.2,121.2,25.8,121.2z M14.8,129.5c-1,0-2.2-0.3-3.1-1.2
	c-0.9-0.9-1-1.9-1-3.2v-5.7H13v5.6c0,0.6,0,1.3,0.4,1.8c0.3,0.4,0.8,0.7,1.5,0.7s1.2-0.3,1.5-0.7c0.4-0.5,0.4-1.2,0.4-1.8v-5.6h2.3
	v5.7c0,1.3-0.1,2.3-1,3.2C17.1,129.1,15.9,129.5,14.8,129.5z M6.1,123.4c0-0.6,0-1.2-0.4-1.7c-0.3-0.3-0.7-0.5-1.3-0.5
	c-0.8,0-1.4,0.4-1.7,0.8c-0.3,0.5-0.5,1.2-0.5,2.5v4.7H0v-13.7h2.3v4.8c1-1,2-1.1,2.6-1.1c1.8,0,2.6,0.9,2.9,1.3
	c0.6,0.9,0.6,2,0.6,2.7v6H6.1V123.4z M77.4,129.2h-2.3v-9.8h2.3V129.2z M150.5,129.2h-2.3v-9.8h2.3V129.2z"/>
<path class="st2" d="M146.6,39.6h-9.7c-0.6,0-1,0.5-1,1V71c0,0.6-0.5,1-1,1h-8.8c-0.6,0-1-0.5-1-1V40.6c0-0.6-0.5-1-1-1h-9.6
	c-0.6,0-1-0.5-1-1v-8.8c0-0.6,0.5-1,1-1h32.2c0.6,0,1,0.5,1,1v8.8C147.6,39.1,147.1,39.6,146.6,39.6z M108.7,72h-9.8
	c-0.3,0-0.7-0.1-1-0.3c-0.3-0.2-0.6-0.4-0.7-0.7l-6.5-11.4c-0.1-0.2-0.2-0.2-0.4-0.2h-7.1c-0.2,0-0.3,0.1-0.3,0.3v11.1
	c0,0.8-0.4,1.2-1.2,1.2h-8.4c-0.8,0-1.2-0.4-1.2-1.2V30c0-0.8,0.4-1.2,1.2-1.2h27.6c1,0,1.9,0.2,2.8,0.6s1.6,0.9,2.3,1.5
	c0.6,0.6,1.2,1.4,1.5,2.3c0.4,0.9,0.6,1.8,0.6,2.8v16.2c0,1.6-0.5,3-1.4,4.2c-0.9,1.3-2.1,2.1-3.5,2.6l-0.2,0.1
	c-0.3,0.1-0.3,0.2-0.2,0.4l0.1,0.1l6.6,11.4c0.2,0.3,0.2,0.5,0.1,0.7C109.3,71.9,109.1,72,108.7,72z M97.2,38.7H82.8v10.8h14.4
	C97.2,49.5,97.2,38.7,97.2,38.7z M63.8,72H55c-0.6,0-1-0.5-1-1V56.8c0-0.6-0.5-1-1-1H40.6c-0.6,0-1,0.5-1,1V71c0,0.6-0.5,1-1,1h-8.8
	c-0.6,0-1-0.5-1-1V29.8c0-0.6,0.5-1,1-1h8.8c0.6,0,1,0.5,1,1V44c0,0.6,0.5,1,1,1H53c0.6,0,1-0.5,1-1V29.8c0-0.6,0.5-1,1-1h8.8
	c0.6,0,1,0.5,1,1V71C64.8,71.5,64.3,72,63.8,72z"/>
</svg>
